# File created by Blade
# Date/Time:  Tue Sep 30 19:36:22 2014
#---------------------------------------------------------
:version 1.10
:name HOM
:units
  mass 1.0
  length 1.000000
  angle deg
:documentation
     Acclaim Skeleton File
:root
   axis xyz
   order TX TY TZ RX RY RZ
   position 0.000000 0.000000 0.000000
   orientation 0 0 0
:bonedata
   begin
      id 1
      name Spine_dum
      direction 0.000000 1.000000 0.000000
      length 3.241213
      axis 0.0 0.0 0.0 xyz
   end
   begin
      id 2
      name LeftUpLeg_dum
      direction 1.000000 0.000000 0.000000
      length 3.434019
      axis 0.0 0.0 0.0 xyz
   end
   begin
      id 3
      name RightUpLeg_dum
      direction -1.000000 0.000000 0.000000
      length 3.434019
      axis 0.0 0.0 0.0 xyz
   end
   begin
      id 4
      name Spine
      direction 0.000000 1.000000 0.000000
      length 0.000000
      axis 0.0 0.0 0.0 xyz
      dof rx ry rz
   end
   begin
      id 5
      name Spine_dum1
      direction 0.000000 1.000000 0.000000
      length 18.382958
      axis 0.0 0.0 0.0 xyz
   end
   begin
      id 6
      name Spine_dum2
      direction 0.000000 1.000000 0.000000
      length 12.828261
      axis 0.0 0.0 0.0 xyz
   end
   begin
      id 7
      name Spine_dum3
      direction 0.000000 1.000000 0.000000
      length 12.828261
      axis 0.0 0.0 0.0 xyz
   end
   begin
      id 8
      name Head
      direction 0.000000 1.000000 0.000000
      length 4.527550
      axis 0.0 0.0 0.0 xyz
      dof rx ry rz
   end
   begin
      id 9
      name LeftShoulder
      direction 1.000000 0.000000 0.000000
      length 7.748055
      axis 0.0 0.0 -90.0 xyz
      dof rx ry rz
   end
   begin
      id 10
      name LeftArm
      direction 1.000000 0.000000 0.000000
      length 10.635614
      axis 0.0 0.0 -90.0 xyz
      dof rx ry rz
   end
   begin
      id 11
      name LeftForeArm
      direction 1.000000 0.000000 0.000000
      length 8.346755
      axis 0.0 0.0 -90.0 xyz
      dof ry rz rx
   end
   begin
      id 12
      name LeftHand
      direction 0.000000 0.000000 0.000000
      length 0.000000
      axis 0.0 0.0 -90.0 xyz
      dof rx ry rz
   end
   begin
      id 13
      name LeftHand_dum1
      direction 0.000000 0.000000 0.000000
      length 0.000000
      axis 0.0 0.0 -90.0 xyz
   end
   begin
      id 14
      name LeftHand_dum2
      direction 1.000000 0.000000 0.000000
      length 3.937000
      axis 0.0 0.0 -90.0 xyz
   end
   begin
      id 15
      name LeftHandThumb1
      direction 0.000000 0.000000 1.000000
      length 3.937000
      axis 0.0 0.0 -90.0 xyz
      dof rx rz ry
   end
   begin
      id 16
      name RightShoulder
      direction -1.000000 0.000000 0.000000
      length 7.748055
      axis 0.0 0.0 90.0 xyz
      dof rx ry rz
   end
   begin
      id 17
      name RightArm
      direction -1.000000 0.000000 0.000000
      length 10.635614
      axis 0.0 0.0 90.0 xyz
      dof rx ry rz
   end
   begin
      id 18
      name RightForeArm
      direction -1.000000 0.000000 0.000000
      length 8.346755
      axis 0.0 0.0 90.0 xyz
      dof ry rz rx
   end
   begin
      id 19
      name RightHand
      direction 0.000000 0.000000 0.000000
      length 0.000000
      axis 0.0 0.0 90.0 xyz
      dof rx ry rz
   end
   begin
      id 20
      name RightHand_dum1
      direction 0.000000 0.000000 0.000000
      length 0.000000
      axis 0.0 0.0 90.0 xyz
   end
   begin
      id 21
      name RightHand_dum2
      direction -1.000000 0.000000 0.000000
      length 3.937000
      axis 0.0 0.0 90.0 xyz
   end
   begin
      id 22
      name RightHandThumb1
      direction 0.000000 0.000000 1.000000
      length 3.937000
      axis 0.0 0.0 90.0 xyz
      dof rx rz ry
   end
   begin
      id 23
      name LeftUpLeg
      direction 0.000000 -1.000000 0.000000
      length 15.713025
      axis 0.0 0.0 0.0 xyz
      dof rx ry rz
   end
   begin
      id 24
      name LeftLeg
      direction 0.000000 -1.000000 0.000000
      length 14.435119
      axis 0.0 0.0 0.0 xyz
      dof rx ry rz
   end
   begin
      id 25
      name LeftFoot
      direction 0.000000 -0.258819 0.965926
      length 4.938895
      axis 15.0 0.0 0.0 xyz
      dof rx ry rz
   end
   begin
      id 26
      name LeftToeBase
      direction 0.000000 0.000000 1.000000
      length 2.952750
      axis 0.0 0.0 0.0 xyz
      dof rx ry rz
   end
   begin
      id 27
      name RightUpLeg
      direction 0.000000 -1.000000 0.000000
      length 15.713025
      axis 0.0 0.0 0.0 xyz
      dof rx ry rz
   end
   begin
      id 28
      name RightLeg
      direction 0.000000 -1.000000 0.000000
      length 14.435119
      axis 0.0 0.0 0.0 xyz
      dof rx ry rz
   end
   begin
      id 29
      name RightFoot
      direction 0.000000 -0.258819 0.965926
      length 4.938895
      axis 15.0 0.0 0.0 xyz
      dof rx ry rz
   end
   begin
      id 30
      name RightToeBase
      direction 0.000000 0.000000 1.000000
      length 2.952750
      axis 0.0 0.0 0.0 xyz
      dof rx ry rz
   end
:hierarchy
   begin
      root Spine_dum LeftUpLeg_dum RightUpLeg_dum
      Spine_dum Spine
      LeftUpLeg_dum LeftUpLeg
      RightUpLeg_dum RightUpLeg
      Spine Spine_dum1 Spine_dum2 Spine_dum3
      Spine_dum1 Head
      Spine_dum2 LeftShoulder
      Spine_dum3 RightShoulder
      LeftShoulder LeftArm
      LeftArm LeftForeArm
      LeftForeArm LeftHand
      LeftHand LeftHand_dum1 LeftHand_dum2
      LeftHand_dum1 LeftHandThumb1
      RightShoulder RightArm
      RightArm RightForeArm
      RightForeArm RightHand
      RightHand RightHand_dum1 RightHand_dum2
      RightHand_dum1 RightHandThumb1
      LeftUpLeg LeftLeg
      LeftLeg LeftFoot
      LeftFoot LeftToeBase
      RightUpLeg RightLeg
      RightLeg RightFoot
      RightFoot RightToeBase
   end

# File created by Blade
# Date/Time:  Tue Sep 23 19:18:47 2014
# Frame Rate: 120.000 fps
#------------------------------------------------------
:FULLY-SPECIFIED
:DEGREES
141
root 2.407109 33.048905 2.853176 43.371901 13.227298 -11.094628
Spine -44.276919 -17.916333 18.408481
Head -1.273158 -2.593925 13.155832
LeftShoulder -11.863063 38.277225 24.649588
LeftArm 63.050263 0.897313 -78.546932
LeftForeArm 9.362873 -0.000000 98.242912
LeftHand -56.262248 -0.000000 22.939363
LeftHandThumb1 -26.253704 0.000000 33.147579
RightShoulder -29.692694 -53.998257 2.158396
RightArm 41.096141 6.421311 91.001229
RightForeArm 55.348155 0.000000 2.239516
RightHand 18.459572 0.000000 0.956558
RightHandThumb1 -24.326973 -0.000000 -32.862282
LeftUpLeg -42.602896 -0.181075 8.972749
LeftLeg 7.140529 -0.000000 -0.000000
LeftFoot -7.614142 -1.177024 5.163725
LeftToeBase 1.546644 -0.000000 -0.000000
RightUpLeg -35.749414 1.109426 -12.252335
RightLeg 61.443786 -0.000000 -0.000000
RightFoot 21.796000 -1.305475 17.647830
RightToeBase 24.181260 -0.000000 -0.000000
142
root 2.420892 33.066413 2.888228 43.661718 13.539323 -11.350919
Spine -44.718145 -17.887547 18.936483
Head -1.277154 -2.519410 13.273270
LeftShoulder -11.864257 38.264604 24.660284
LeftArm 63.003113 0.897599 -78.726423
LeftForeArm 9.391632 -0.000000 98.165919
LeftHand -56.383029 0.000000 22.657012
LeftHandThumb1 -26.253704 0.000000 33.147579
RightShoulder -29.909417 -53.954053 2.341732
RightArm 41.021477 7.156177 91.232151
RightForeArm 55.658756 -0.000000 2.531703
RightHand 18.552666 -0.000000 1.042145
RightHandThumb1 -24.326973 -0.000000 -32.862282
LeftUpLeg -42.872552 -0.045454 9.228437
LeftLeg 7.015756 -0.000000 -0.000000
LeftFoot -7.523585 -1.279786 5.288839
LeftToeBase 1.459785 -0.000000 -0.000000
RightUpLeg -35.856537 1.270247 -12.500524
RightLeg 63.767449 -0.000000 -0.000000
RightFoot 22.932053 -1.543133 17.141747
RightToeBase 24.755285 -0.000000 -0.000000
143
root 2.435199 33.083497 2.921546 43.974595 13.829530 -11.615621
Spine -45.168801 -17.797032 19.425317
Head -1.272522 -2.458824 13.364361
LeftShoulder -11.734789 38.223853 24.783899
LeftArm 62.899476 0.852726 -78.817258
LeftForeArm 9.270827 0.000000 98.126130
LeftHand -56.440492 -0.000000 22.640917
LeftHandThumb1 -26.253704 0.000000 33.147579
RightShoulder -30.220773 -53.900801 2.608674
RightArm 41.032804 7.682260 91.267365
RightForeArm 56.492183 -0.000000 2.556815
RightHand 18.831405 0.000000 1.268250
RightHandThumb1 -24.326973 -0.000000 -32.862282
LeftUpLeg -43.157575 0.091291 9.486914
LeftLeg 6.876334 -0.000000 -0.000000
LeftFoot -7.368862 -1.322733 5.606846
LeftToeBase 1.164780 -0.000000 -0.000000
RightUpLeg -35.986114 1.420241 -12.756655
RightLeg 66.074054 -0.000000 -0.000000
RightFoot 24.021703 -1.717330 16.718598
RightToeBase 25.675102 -0.000000 -0.000000
144
root 2.448449 33.100292 2.954500 44.206012 14.109067 -11.903681
Spine -45.532595 -17.750089 19.936635
Head -1.292516 -2.371463 13.496297
LeftShoulder -11.736566 38.240906 24.855635
LeftArm 62.822770 0.834345 -78.729458
LeftForeArm 8.999103 -0.000000 98.074238
LeftHand -56.276691 0.000000 22.799179
LeftHandThumb1 -26.253704 0.000000 33.147579
RightShoulder -30.327374 -53.803500 2.740954
RightArm 40.941015 8.357355 91.414327
RightForeArm 57.194610 -0.000000 2.676630
RightHand 19.143571 -0.000000 1.004050
RightHandThumb1 -24.326973 -0.000000 -32.862282
LeftUpLeg -43.362833 0.214777 9.769441
LeftLeg 6.737032 -0.000000 -0.000000
LeftFoot -7.179297 -1.296613 6.005117
LeftToeBase 0.669324 -0.000000 -0.000000
RightUpLeg -36.018317 1.565910 -13.001342
RightLeg 68.316066 -0.000000 -0.000000
RightFoot 25.048507 -2.075135 16.264791
RightToeBase 26.723487 -0.000000 -0.000000
145
root 2.460059 33.117645 2.980557 44.595557 14.337564 -12.207714
Spine -46.027354 -17.593071 20.462530
Head -1.361614 -2.319700 13.654089
LeftShoulder -11.717118 38.232296 24.934125
LeftArm 62.737977 0.770629 -78.694408
LeftForeArm 8.770545 0.000000 98.062126
LeftHand -56.265836 0.000000 22.805116
LeftHandThumb1 -26.253704 0.000000 33.147579
RightShoulder -30.600161 -53.736769 2.920821
RightArm 40.953324 8.915776 91.598604
RightForeArm 58.051346 -0.000000 2.699245
RightHand 19.447533 -0.000000 -0.806442
RightHandThumb1 -24.326973 -0.000000 -32.862282
LeftUpLeg -43.732952 0.379689 10.053980
LeftLeg 6.609487 -0.000000 -0.000000
LeftFoot -7.026792 -1.219278 6.423611
LeftToeBase 0.310354 -0.000000 -0.000000
RightUpLeg -36.244310 1.750348 -13.304707
RightLeg 70.632840 -0.000000 -0.000000
RightFoot 26.185597 -1.759177 15.438852
RightToeBase 27.113518 -0.000000 -0.000000
146
root 2.473678 33.132730 3.007303 44.892292 14.555996 -12.522568
Spine -46.428210 -17.446734 20.981995
Head -1.406231 -2.241890 13.778254
LeftShoulder -11.683837 38.250377 24.973815
LeftArm 62.647931 0.684463 -78.755180
LeftForeArm 8.756115 -0.000000 98.113132
LeftHand -56.377907 -0.000000 22.448129
LeftHandThumb1 -26.253704 0.000000 33.147579
RightShoulder -30.730182 -53.650495 3.042477
RightArm 40.918669 9.560696 91.744207
RightForeArm 58.662177 -0.000000 2.727991
RightHand 19.602564 -0.000000 -0.263837
RightHandThumb1 -24.326973 -0.000000 -32.862282
LeftUpLeg -44.008109 0.484710 10.374848
LeftLeg 6.486575 -0.000000 -0.000000
LeftFoot -6.909894 -1.048161 6.817007
LeftToeBase -0.010888 -0.000000 0.000000
RightUpLeg -36.349808 1.999617 -13.639427
RightLeg 72.851316 -0.000000 -0.000000
RightFoot 27.322341 -1.452311 14.790484
RightToeBase 28.391416 -0.000000 -0.000000
